<?xml version="1.0" standalone="no"?>
<!DOCTYPE svg PUBLIC "-//W3C//DTD SVG 20010904//EN"
 "http://www.w3.org/TR/2001/REC-SVG-20010904/DTD/svg10.dtd">
<svg version="1.0" xmlns="http://www.w3.org/2000/svg"
 width="328.000000pt" height="328.000000pt" viewBox="0 0 328.000000 328.000000"
 preserveAspectRatio="xMidYMid meet">
<metadata>
Created by potrace 1.11, written by Peter Selinger 2001-2013
</metadata>
<g transform="translate(0.000000,328.000000) scale(0.100000,-0.100000)"
fill="#000000" stroke="none">
<path d="M2140 3168 c-19 -11 -56 -32 -82 -45 -27 -14 -48 -30 -48 -36 0 -6
10 -21 22 -34 l21 -23 -554 -1 c-305 -1 -560 -1 -566 0 -9 1 -13 -20 -14 -76
-1 -80 1 -115 6 -121 3 -3 1031 -5 1296 -2 l55 0 0 114 -1 114 -45 66 c-25 36
-47 65 -50 65 -3 0 -21 -10 -40 -21z"/>
<path d="M1529 2326 c0 -6 0 -39 1 -73 l1 -63 -273 0 -274 0 1 -82 0 -83 40 0
c22 0 43 -4 47 -10 5 -7 8 -7 8 0 0 11 125 13 136 2 3 -3 11 -4 18 -1 7 3 16
-13 24 -41 17 -62 17 -62 -28 -62 -22 0 -40 5 -40 11 0 6 -5 4 -10 -4 -9 -13
-11 -13 -20 0 -5 8 -10 10 -10 4 0 -14 -68 -13 -89 0 -9 6 -12 5 -8 -1 4 -7
-28 -10 -93 -9 l-99 1 -3 -85 -3 -86 115 1 c69 1 118 -3 122 -10 5 -6 8 -5 8
3 0 10 5 10 21 1 15 -8 19 -8 15 0 -8 12 21 11 41 -2 6 -4 14 -4 17 1 6 11 57
9 75 -3 10 -5 12 -4 7 3 -4 7 -2 12 3 12 6 0 11 -5 11 -11 0 -5 5 -7 11 -3 16
10 79 12 73 2 -3 -4 -1 -8 5 -8 5 0 12 6 14 13 4 9 8 9 15 -2 6 -8 12 -9 16
-3 9 15 72 8 68 -7 -1 -7 2 -10 8 -6 6 3 8 10 6 14 -3 4 1 8 9 8 8 0 15 -4 15
-9 0 -5 6 -6 13 -1 18 12 61 11 70 -1 5 -8 9 -8 15 0 11 15 108 11 104 -5 -1
-7 2 -10 8 -6 6 3 8 10 6 14 -3 4 1 8 9 8 8 0 15 -4 15 -9 0 -5 6 -6 13 -1 18
12 61 11 70 -1 5 -7 11 -6 18 4 8 12 12 12 16 2 4 -10 8 -10 21 0 13 11 14 11
7 -1 -6 -10 -4 -12 6 -5 20 12 239 11 239 -1 0 -7 3 -7 8 0 9 12 182 14 182 2
0 -5 7 -4 15 3 8 6 19 9 25 5 5 -3 10 2 11 12 0 10 1 48 2 86 1 39 -2 67 -8
68 -5 1 -58 1 -118 1 -74 0 -105 3 -101 10 5 7 2 8 -7 2 -17 -11 -179 -15
-179 -5 0 22 34 114 37 103 4 -10 8 -10 19 -1 11 9 18 9 26 1 7 -7 17 -8 27
-3 20 11 32 11 54 0 9 -5 17 -6 17 -1 0 5 25 8 56 7 50 -2 55 0 52 19 -1 12 1
27 5 34 5 6 5 12 0 12 -4 0 -7 20 -6 45 1 24 -2 47 -6 50 -5 2 -127 5 -273 5
l-264 1 0 72 0 72 -102 1 c-69 1 -102 -2 -103 -10z m21 -309 c0 -5 8 -6 18 -2
26 11 102 12 102 2 0 -5 8 -6 18 -2 25 10 79 13 92 5 8 -5 5 -22 -8 -56 -15
-36 -25 -49 -41 -50 -11 -1 -21 4 -21 10 0 7 -3 8 -8 1 -10 -15 -52 -16 -52
-2 0 7 -4 6 -10 -3 -9 -13 -11 -13 -20 0 -6 10 -10 11 -10 3 0 -7 -5 -13 -11
-13 -5 0 -7 6 -3 13 5 8 2 8 -9 -2 -14 -11 -17 -11 -17 0 0 11 -2 11 -10 -1
-7 -12 -12 -11 -32 5 -21 19 -22 19 -8 1 13 -16 13 -18 1 -15 -8 3 -22 28 -31
57 -17 50 -17 51 4 54 38 6 56 4 56 -5z"/>
<path d="M1515 1960 c3 -5 8 -10 11 -10 2 0 4 5 4 10 0 6 -5 10 -11 10 -5 0
-7 -4 -4 -10z"/>
<path d="M1550 1960 c0 -5 5 -10 11 -10 5 0 7 5 4 10 -3 6 -8 10 -11 10 -2 0
-4 -4 -4 -10z"/>
<path d="M1580 1966 c0 -2 8 -10 18 -17 15 -13 16 -12 3 4 -13 16 -21 21 -21
13z"/>
<path d="M1666 1958 c3 -5 10 -6 15 -3 13 9 11 12 -6 12 -8 0 -12 -4 -9 -9z"/>
<path d="M1215 1731 c-3 -5 -2 -12 3 -15 5 -3 9 1 9 9 0 17 -3 19 -12 6z"/>
<path d="M1454 1729 c-3 -6 -2 -15 3 -20 5 -5 9 -1 9 11 0 23 -2 24 -12 9z"/>
<path d="M1553 1725 c0 -8 4 -12 9 -9 5 3 6 10 3 15 -9 13 -12 11 -12 -6z"/>
<path d="M1694 1729 c-3 -6 -2 -15 3 -20 5 -5 9 -1 9 11 0 23 -2 24 -12 9z"/>
<path d="M1793 1725 c0 -8 4 -12 9 -9 5 3 6 10 3 15 -9 13 -12 11 -12 -6z"/>
<path d="M1340 1726 c0 -2 8 -10 18 -17 15 -13 16 -12 3 4 -13 16 -21 21 -21
13z"/>
<path d="M2015 1720 c-3 -5 -1 -10 4 -10 6 0 11 5 11 10 0 6 -2 10 -4 10 -3 0
-8 -4 -11 -10z"/>
<path d="M1235 1700 c-3 -5 -39 -10 -79 -10 -57 0 -73 -3 -74 -15 -3 -26 -3
-78 -1 -132 2 -29 0 -55 -3 -58 -3 -3 -2 -21 2 -40 4 -19 6 -36 3 -38 -2 -3
-4 -27 -3 -53 0 -27 1 -57 0 -66 -1 -43 -1 -61 0 -194 l1 -141 35 2 c20 2 34
-2 34 -9 0 -7 3 -8 8 0 11 16 138 12 134 -5 -1 -7 2 -10 8 -6 6 3 8 10 5 15
-2 4 22 8 55 8 33 0 57 -4 55 -8 -3 -5 -1 -12 5 -15 6 -4 9 -1 8 7 -4 16 70
19 91 4 11 -8 13 -8 8 1 -9 15 32 14 52 -1 11 -8 13 -8 8 0 -5 9 66 12 271 12
152 1 288 1 302 1 l26 1 0 365 1 365 -131 1 c-72 0 -151 0 -175 -1 -33 -1 -41
1 -36 12 6 10 5 11 -6 1 -9 -9 -50 -13 -127 -13 -88 0 -112 3 -106 13 6 10 4
10 -7 0 -17 -16 -364 -19 -354 -3 3 6 4 10 1 10 -3 0 -8 -4 -11 -10z m80 -189
c-3 -5 -1 -13 5 -16 6 -4 9 -1 8 7 -2 9 12 13 52 13 40 0 54 -4 52 -13 -1 -8
2 -11 8 -7 6 3 8 10 6 14 -3 4 40 8 95 8 54 1 97 -2 94 -7 -3 -5 -1 -12 5 -15
6 -4 9 -1 8 6 -5 20 94 20 110 0 11 -15 12 -15 7 0 -5 12 1 16 27 17 18 0 39
-5 47 -11 8 -7 12 -7 8 -1 -4 7 16 10 61 9 37 -1 68 -3 70 -4 1 0 -2 -10 -8
-21 -6 -11 -7 -20 -2 -20 5 0 8 -10 6 -22 -1 -13 -3 -26 -3 -30 -2 -13 -31 -9
-32 5 0 9 -2 9 -6 0 -3 -9 -45 -12 -151 -12 -100 0 -150 3 -161 12 -12 9 -13
9 -7 0 6 -10 -28 -13 -158 -13 -102 0 -166 4 -168 10 -2 6 -2 31 0 55 3 31 9
45 19 45 8 0 12 -4 8 -9z m-1 -273 c-6 -10 -4 -10 8 0 10 8 19 9 22 3 6 -9 50
-6 68 5 4 3 8 1 8 -5 0 -6 11 -6 30 -1 23 6 29 6 24 -3 -5 -9 -3 -9 6 0 10 9
17 10 27 2 10 -9 13 -8 13 2 0 10 3 10 11 2 8 -8 20 -8 35 -3 16 6 24 6 24 -1
0 -6 7 -6 18 -2 21 10 43 10 60 0 7 -5 12 -3 12 4 0 8 3 9 13 0 8 -6 16 -8 19
-5 11 10 87 10 80 -1 -3 -5 1 -4 10 2 8 7 18 9 22 5 11 -10 66 -9 66 2 0 5 6
4 13 -2 8 -7 18 -7 27 -2 27 17 45 -5 44 -57 l0 -48 -342 -2 -342 -3 -1 28
c-2 49 3 77 15 84 16 11 18 10 10 -4z"/>
<path d="M1510 1496 c0 -2 8 -10 18 -17 15 -13 16 -12 3 4 -13 16 -21 21 -21
13z"/>
<path d="M1670 1496 c0 -2 8 -10 18 -17 15 -13 16 -12 3 4 -13 16 -21 21 -21
13z"/>
<path d="M1825 1479 c-3 -4 2 -6 10 -5 21 3 28 13 10 13 -9 0 -18 -4 -20 -8z"/>
<path d="M1875 1481 c-3 -5 -2 -12 3 -15 5 -3 9 1 9 9 0 17 -3 19 -12 6z"/>
<path d="M1455 1460 c-3 -5 -1 -10 4 -10 6 0 11 5 11 10 0 6 -2 10 -4 10 -3 0
-8 -4 -11 -10z"/>
<path d="M1355 1209 c-4 -6 -5 -12 -2 -15 2 -3 7 2 10 11 7 17 1 20 -8 4z"/>
<path d="M1310 1201 c0 -6 4 -13 10 -16 6 -3 7 1 4 9 -7 18 -14 21 -14 7z"/>
<path d="M1493 1185 c0 -8 4 -12 9 -9 5 3 6 10 3 15 -9 13 -12 11 -12 -6z"/>
<path d="M1526 1182 c-3 -5 1 -9 9 -9 8 0 12 4 9 9 -3 4 -7 8 -9 8 -2 0 -6 -4
-9 -8z"/>
<path d="M1610 1180 c0 -5 5 -10 11 -10 5 0 7 5 4 10 -3 6 -8 10 -11 10 -2 0
-4 -4 -4 -10z"/>
<path d="M1435 1169 c-4 -6 -5 -12 -2 -15 2 -3 7 2 10 11 7 17 1 20 -8 4z"/>
<path d="M1330 1160 c0 -5 5 -10 11 -10 5 0 7 5 4 10 -3 6 -8 10 -11 10 -2 0
-4 -4 -4 -10z"/>
<path d="M1385 1160 c-3 -6 1 -7 9 -4 18 7 21 14 7 14 -6 0 -13 -4 -16 -10z"/>
<path d="M1853 1155 c0 -8 4 -12 9 -9 5 3 6 10 3 15 -9 13 -12 11 -12 -6z"/>
<path d="M1695 940 c-3 -5 -1 -10 4 -10 6 0 11 5 11 10 0 6 -2 10 -4 10 -3 0
-8 -4 -11 -10z"/>
<path d="M1900 940 c8 -5 20 -10 25 -10 6 0 3 5 -5 10 -8 5 -19 10 -25 10 -5
0 -3 -5 5 -10z"/>
<path d="M1955 940 c-3 -5 -1 -10 4 -10 6 0 11 5 11 10 0 6 -2 10 -4 10 -3 0
-8 -4 -11 -10z"/>
<path d="M1327 919 c7 -7 15 -10 18 -7 3 3 -2 9 -12 12 -14 6 -15 5 -6 -5z"/>
<path d="M1470 920 c0 -5 5 -10 11 -10 5 0 7 5 4 10 -3 6 -8 10 -11 10 -2 0
-4 -4 -4 -10z"/>
<path d="M2146 922 c-3 -5 1 -9 9 -9 8 0 12 4 9 9 -3 4 -7 8 -9 8 -2 0 -6 -4
-9 -8z"/>
<path d="M1539 908 c-6 -21 -5 -38 1 -38 5 0 8 9 7 20 -1 17 -5 26 -8 18z"/>
<path d="M1615 890 c1 -3 12 -25 23 -50 10 -25 41 -93 67 -152 26 -59 53 -109
61 -112 8 -3 12 -2 9 4 -7 11 49 42 59 33 3 -4 6 -1 6 6 0 8 6 11 17 7 10 -4
14 -4 10 0 -9 9 30 37 42 29 17 -10 1 65 -24 114 -13 27 -21 51 -18 55 4 3 1
6 -6 6 -9 0 -11 8 -8 21 3 12 3 18 0 15 -3 -3 -11 1 -17 9 -8 11 -38 15 -118
17 -58 2 -105 1 -103 -2z"/>
<path d="M1304 859 c-7 -13 -7 -542 1 -561 5 -12 12 -15 23 -10 22 10 84 8
101 -3 8 -5 12 -4 8 1 -3 5 141 9 351 9 l356 0 1 98 1 97 -161 1 c-88 0 -231
0 -317 0 -87 0 -158 3 -159 7 -1 12 -1 196 0 210 1 8 6 10 14 6 8 -5 7 -2 -2
9 -9 11 -14 41 -13 81 l0 64 -99 -1 c-55 0 -102 -4 -105 -8z"/>
<path d="M1556 827 c3 -10 9 -15 12 -12 3 3 0 11 -7 18 -10 9 -11 8 -5 -6z"/>
<path d="M2235 820 c-3 -5 -15 -10 -26 -10 -10 0 -19 -4 -19 -9 0 -5 -17 -16
-37 -25 -40 -16 -73 -39 -73 -50 0 -3 11 -30 25 -58 14 -29 23 -59 20 -66 -2
-7 -1 -10 4 -7 8 4 18 -13 26 -45 1 -3 16 -35 33 -72 l31 -68 111 0 c60 0 110
2 110 5 0 4 -85 202 -123 285 -11 25 -20 51 -20 58 0 6 -4 12 -8 12 -4 0 -12
14 -18 30 -10 30 -25 38 -36 20z"/>
<path d="M1986 802 c-3 -5 1 -9 9 -9 8 0 12 4 9 9 -3 4 -7 8 -9 8 -2 0 -6 -4
-9 -8z"/>
<path d="M1003 780 c1 -3 -9 -27 -21 -54 -12 -27 -22 -52 -22 -57 0 -5 -4 -9
-10 -9 -5 0 -10 -4 -10 -9 0 -5 -24 -60 -54 -122 l-53 -114 86 -47 c47 -26 89
-48 93 -48 4 0 21 31 39 70 18 38 37 66 42 63 6 -3 7 -1 4 5 -10 15 3 43 16
35 5 -3 7 -1 3 5 -9 14 35 103 47 95 6 -3 7 -1 4 4 -10 16 64 173 77 166 6 -3
6 0 -1 7 -9 9 -46 13 -127 14 -63 1 -114 -1 -113 -4z"/>
<path d="M1576 722 c-3 -5 1 -9 9 -9 8 0 12 4 9 9 -3 4 -7 8 -9 8 -2 0 -6 -4
-9 -8z"/>
<path d="M1590 646 c0 -2 7 -7 16 -10 8 -3 12 -2 9 4 -6 10 -25 14 -25 6z"/>
<path d="M1955 571 c-3 -5 -2 -12 3 -15 5 -3 9 1 9 9 0 17 -3 19 -12 6z"/>
<path d="M1590 559 c0 -5 5 -7 10 -4 6 3 10 8 10 11 0 2 -4 4 -10 4 -5 0 -10
-5 -10 -11z"/>
<path d="M1196 513 c-6 -14 -5 -15 5 -6 7 7 10 15 7 18 -3 3 -9 -2 -12 -12z"/>
<path d="M1720 520 c-9 -6 -10 -10 -3 -10 6 0 15 5 18 10 8 12 4 12 -15 0z"/>
<path d="M2355 369 c-4 -6 -5 -12 -2 -15 2 -3 7 2 10 11 7 17 1 20 -8 4z"/>
</g>
</svg>
